<svg width="45" height="43" viewBox="0 0 45 43" fill="none" xmlns="http://www.w3.org/2000/svg">
<path d="M44.0791 40.3056L29.4461 14.6175C29.1916 14.1751 28.8172 13.8079 28.3631 13.5552V10.2824H37.0301C37.4131 10.2824 37.7804 10.1355 38.0512 9.87398C38.322 9.61247 38.4741 9.25777 38.4741 8.88793V1.91256C38.4741 1.72943 38.4368 1.5481 38.3642 1.37891C38.2916 1.20972 38.1853 1.05599 38.0512 0.926504C37.9171 0.797013 37.7579 0.694296 37.5827 0.624216C37.4075 0.554136 37.2197 0.518066 37.0301 0.518066H26.9181C26.5351 0.518066 26.1678 0.664986 25.897 0.926504C25.6262 1.18802 25.4741 1.54272 25.4741 1.91256V13.561C25.02 13.8137 24.6457 14.1809 24.3911 14.6233L19.6961 22.8367L29.2291 38.8927C29.5334 39.418 29.7167 40.0006 29.7666 40.6006C29.8164 41.2005 29.7317 41.8038 29.5181 42.3693H42.8071C43.0578 42.369 43.304 42.306 43.5219 42.1862C43.7397 42.0665 43.9216 41.8942 44.0498 41.6862C44.178 41.4782 44.2481 41.2416 44.2532 40.9996C44.2584 40.7576 44.1984 40.5185 44.0791 40.3056Z" fill="#7C3AED"/>
<path d="M16.4311 22.8373C16.1791 22.4079 15.8137 22.0508 15.3722 21.8023C14.9306 21.5538 14.4287 21.4229 13.9176 21.4229C13.4065 21.4229 12.9046 21.5538 12.463 21.8023C12.0215 22.0508 11.6561 22.4079 11.4041 22.8373L1.1061 40.2733C0.97883 40.4858 0.911894 40.727 0.912049 40.9724C0.912204 41.2179 0.979445 41.4589 1.10698 41.6713C1.23451 41.8836 1.41782 42.0596 1.63838 42.1816C1.85893 42.3036 2.10893 42.3672 2.3631 42.366H25.4741C25.7283 42.3672 25.9783 42.3036 26.1988 42.1816C26.4194 42.0596 26.6027 41.8836 26.7302 41.6713C26.8577 41.4589 26.925 41.2179 26.9251 40.9724C26.9253 40.727 26.8584 40.4858 26.7311 40.2733L16.4311 22.8373Z" fill="#7C3AED"/>
</svg>
