<svg width="45" height="43" viewBox="0 0 45 43" fill="none" xmlns="http://www.w3.org/2000/svg">
<path d="M11.9389 11.8198L8.18494 12.0999C7.6729 12.1363 7.17638 12.2858 6.73371 12.537C6.29105 12.7881 5.91408 13.1342 5.63194 13.5484L1.30194 19.8729C1.0875 20.1864 0.958085 20.5469 0.925591 20.9212C0.893098 21.2956 0.958568 21.6719 1.11598 22.0154C1.2734 22.359 1.51771 22.6588 1.82646 22.8874C2.13522 23.1159 2.49851 23.2659 2.88294 23.3234L6.32094 23.8372C7.23847 19.4758 9.15836 15.369 11.9389 11.8198Z" fill="#7C3AED"/>
<path d="M20.101 37.1485L20.6329 40.4687C20.6921 40.8402 20.847 41.1914 21.0836 41.4898C21.3202 41.7883 21.6308 42.0244 21.9867 42.1765C22.3426 42.3286 22.7325 42.3918 23.1203 42.3601C23.5081 42.3285 23.8815 42.2031 24.2059 41.9955L30.7549 37.8139C31.1839 37.5414 31.5422 37.1774 31.8023 36.7499C32.0624 36.3224 32.2173 35.8429 32.2549 35.3484L32.545 31.7231C28.8698 34.4084 24.6172 36.2625 20.101 37.1485Z" fill="#7C3AED"/>
<path d="M18.8089 34.8472C18.9292 34.8471 19.0493 34.8374 19.1679 34.8182C20.9339 34.5282 22.6622 34.0548 24.3229 33.4063L10.1989 19.7627C9.52737 21.3664 9.03719 23.0355 8.73693 24.741C8.68004 25.0769 8.70698 25.421 8.81551 25.7449C8.92404 26.0687 9.11103 26.3628 9.36093 26.6029L17.2439 34.2156C17.6587 34.6176 18.2213 34.8447 18.8089 34.8472Z" fill="#7C3AED"/>
<path d="M40.795 19.072C43.3785 13.9547 44.5496 8.27972 44.1949 2.5969C44.165 2.06844 43.9341 1.56926 43.5466 1.19503C43.1591 0.820791 42.6422 0.597836 42.0949 0.568895C41.5559 0.540889 40.9159 0.519644 40.1949 0.519644C34.9404 0.469568 29.7472 1.61246 25.034 3.85619C19.2002 6.9921 14.4344 11.6958 11.3149 17.3965C11.3563 17.4264 11.3957 17.4586 11.4329 17.4931L26.6679 32.2058C26.7036 32.2417 26.737 32.2798 26.7679 32.3197C32.6731 29.3084 37.5459 24.7062 40.795 19.072ZM26.1119 9.36464C27.1504 8.36169 28.5167 7.73749 29.9783 7.59838C31.4399 7.45927 32.9062 7.81386 34.1273 8.60173C35.3485 9.38961 36.249 10.562 36.6755 11.9192C37.1019 13.2764 37.0278 14.7344 36.4659 16.0447C35.904 17.3551 34.889 18.4368 33.5938 19.1055C32.2987 19.7741 30.8035 19.9884 29.363 19.7119C27.9226 19.4353 26.626 18.6849 25.6942 17.5887C24.7624 16.4924 24.2531 15.118 24.2529 13.6997C24.2536 12.074 24.9221 10.5148 26.1119 9.36464Z" fill="#7C3AED"/>
<path d="M27.9079 16.3003C28.5311 16.902 29.3511 17.2764 30.2281 17.3597C31.1051 17.443 31.9849 17.23 32.7175 16.7571C33.4502 16.2842 33.9904 15.5806 34.246 14.7662C34.5017 13.9517 34.4571 13.0769 34.1197 12.2907C33.7823 11.5045 33.1731 10.8556 32.3958 10.4546C31.6186 10.0535 30.7214 9.92514 29.8571 10.0913C28.9928 10.2575 28.215 10.7079 27.656 11.3659C27.0971 12.0239 26.7917 12.8486 26.7919 13.6996C26.7925 14.6751 27.1939 15.6104 27.9079 16.3003Z" fill="#7C3AED"/>
<path d="M2.21085 35.0063C2.378 35.0068 2.5436 34.9754 2.69808 34.9137C2.85256 34.852 2.99285 34.7614 3.11085 34.6471L7.25585 30.6442C7.49454 30.4137 7.62864 30.1011 7.62864 29.7751C7.62864 29.4491 7.49454 29.1364 7.25585 28.9059C7.13766 28.7918 6.99734 28.7012 6.84292 28.6395C6.6885 28.5777 6.52299 28.5459 6.35585 28.5459C6.01828 28.5459 5.69454 28.6754 5.45585 28.9059L1.31285 32.9127C1.13547 33.0844 1.01478 33.303 0.96604 33.5409C0.917302 33.7788 0.942702 34.0254 1.03903 34.2493C1.13535 34.4733 1.29828 34.6647 1.50722 34.7993C1.71615 34.9338 1.96171 35.0056 2.21285 35.0054L2.21085 35.0063Z" fill="#7C3AED"/>
<path d="M11.0519 32.5779C10.9339 32.4633 10.7937 32.3723 10.6392 32.3103C10.4848 32.2482 10.3191 32.2163 10.1519 32.2163C9.98457 32.2163 9.81893 32.2482 9.66448 32.3103C9.51002 32.3723 9.36979 32.4633 9.25185 32.5779L1.28685 40.2736C1.04816 40.5042 0.914063 40.8168 0.914062 41.1428C0.914062 41.4688 1.04816 41.7814 1.28685 42.0119C1.52555 42.2424 1.84929 42.3719 2.18685 42.3719C2.52442 42.3719 2.84816 42.2424 3.08685 42.0119L11.0559 34.3161C11.1742 34.202 11.2681 34.0664 11.332 33.9171C11.3959 33.7678 11.4286 33.6078 11.4282 33.4462C11.4279 33.2847 11.3944 33.1247 11.3298 32.9757C11.2652 32.8267 11.1708 32.6915 11.0519 32.5779Z" fill="#7C3AED"/>
<path d="M13.0549 36.2482L8.9099 40.2511C8.79171 40.3652 8.69796 40.5007 8.634 40.6499C8.57003 40.799 8.53711 40.9588 8.53711 41.1202C8.53711 41.2816 8.57003 41.4415 8.634 41.5906C8.69796 41.7397 8.79171 41.8753 8.9099 41.9894C9.02809 42.1035 9.1684 42.194 9.32282 42.2558C9.47724 42.3176 9.64275 42.3494 9.8099 42.3494C9.97704 42.3494 10.1426 42.3176 10.297 42.2558C10.4514 42.194 10.5917 42.1035 10.7099 41.9894L14.8549 37.9865C15.0936 37.756 15.2277 37.4433 15.2277 37.1173C15.2277 36.7914 15.0936 36.4787 14.8549 36.2482C14.6162 36.0177 14.2925 35.8882 13.9549 35.8882C13.6173 35.8882 13.2936 36.0177 13.0549 36.2482Z" fill="#7C3AED"/>
</svg>
