<svg width="55" height="53" viewBox="0 0 55 53" fill="none" xmlns="http://www.w3.org/2000/svg">
<path d="M28.132 4.6331H25.648C25.2767 3.37704 24.4918 2.272 23.4121 1.48527C22.3324 0.698532 21.0166 0.272949 19.664 0.272949C18.3114 0.272949 16.9956 0.698532 15.9159 1.48527C14.8362 2.272 14.0513 3.37704 13.68 4.6331H11.196C10.7477 4.63613 10.3186 4.80946 10.0016 5.1156C9.68462 5.42174 9.50514 5.83608 9.502 6.26902V9.5428C9.50699 10.5535 9.92497 11.5215 10.665 12.2361C11.4051 12.9508 12.4074 13.3545 13.454 13.3593H25.874C26.9206 13.3545 27.9229 12.9508 28.663 12.2361C29.403 11.5215 29.821 10.5535 29.826 9.5428V6.26902C29.8229 5.83608 29.6434 5.42174 29.3264 5.1156C29.0094 4.80946 28.5803 4.63613 28.132 4.6331Z" fill="#7C3AED"/>
<path d="M32.648 6.81445H32.083V9.54067C32.0835 10.3284 31.9233 11.1084 31.6114 11.8363C31.2995 12.5641 30.8421 13.2254 30.2653 13.7824C29.6885 14.3394 29.0038 14.7811 28.2501 15.0823C27.4964 15.3835 26.6887 15.5383 25.873 15.5378H13.453C12.6373 15.5383 11.8296 15.3835 11.0759 15.0823C10.3222 14.7811 9.63745 14.3394 9.06069 13.7824C8.48393 13.2254 8.02653 12.5641 7.71463 11.8363C7.40274 11.1084 7.24247 10.3284 7.243 9.54067V6.81445H6.679C5.86334 6.81395 5.05558 6.96872 4.30191 7.26992C3.54824 7.57112 2.86345 8.01285 2.28669 8.56983C1.70993 9.12681 1.25253 9.78813 0.940632 10.516C0.628737 11.2438 0.46847 12.0239 0.468995 12.8116V40.0708C0.46847 40.8585 0.628737 41.6386 0.940632 42.3664C1.25253 43.0942 1.70993 43.7556 2.28669 44.3125C2.86345 44.8695 3.54824 45.3112 4.30191 45.6124C5.05558 45.9136 5.86334 46.0684 6.679 46.0679H23.344L23.844 43.3852C24.0663 42.1732 24.6647 41.0551 25.56 40.179L27.367 38.4339H8.937C8.49498 38.4236 8.07467 38.2467 7.76585 37.9411C7.45702 37.6355 7.28415 37.2255 7.28415 36.7985C7.28415 36.3715 7.45702 35.9614 7.76585 35.6559C8.07467 35.3503 8.49498 35.1734 8.937 35.163H30.39C30.4973 35.156 30.605 35.1708 30.706 35.2065H30.729L38.858 27.3562V12.8116C38.8585 12.0239 38.6983 11.2438 38.3864 10.516C38.0745 9.78813 37.6171 9.12681 37.0403 8.56983C36.4635 8.01285 35.7788 7.57112 35.0251 7.26992C34.2714 6.96872 33.4637 6.81395 32.648 6.81445ZM30.39 31.3436H8.937C8.49498 31.3333 8.07467 31.1564 7.76585 30.8508C7.45702 30.5453 7.28415 30.1352 7.28415 29.7082C7.28415 29.2812 7.45702 28.8711 7.76585 28.5656C8.07467 28.26 8.49498 28.0831 8.937 28.0728H30.39C30.832 28.0831 31.2523 28.26 31.5611 28.5656C31.87 28.8711 32.0428 29.2812 32.0428 29.7082C32.0428 30.1352 31.87 30.5453 31.5611 30.8508C31.2523 31.1564 30.832 31.3333 30.39 31.3436ZM30.39 24.2563H8.937C8.49498 24.2459 8.07467 24.069 7.76585 23.7634C7.45702 23.4579 7.28415 23.0478 7.28415 22.6208C7.28415 22.1938 7.45702 21.7838 7.76585 21.4782C8.07467 21.1726 8.49498 20.9957 8.937 20.9854H30.39C30.832 20.9957 31.2523 21.1726 31.5611 21.4782C31.87 21.7838 32.0428 22.1938 32.0428 22.6208C32.0428 23.0478 31.87 23.4579 31.5611 23.7634C31.2523 24.069 30.832 24.2459 30.39 24.2563Z" fill="#7C3AED"/>
<path d="M28.757 52.6097C28.5094 52.61 28.2647 52.5578 28.0403 52.4569C27.8158 52.356 27.617 52.2089 27.4577 52.0257C27.2985 51.8426 27.1828 51.628 27.1188 51.3971C27.0547 51.1661 27.0439 50.9244 27.087 50.6889L28.287 44.1356C28.3483 43.8064 28.5123 43.5031 28.757 43.2664L45.524 27.0733C47.583 25.0801 49.607 25.6189 50.713 26.687L53.506 29.3843C54.2466 30.1002 54.6627 31.0709 54.6627 32.0829C54.6627 33.095 54.2466 34.0657 53.506 34.7816L36.74 50.9748C36.4961 51.2127 36.1815 51.3713 35.84 51.4287L29.054 52.5875C28.957 52.6049 28.8586 52.6136 28.76 52.6136L28.757 52.6097Z" fill="#7C3AED"/>
</svg>
