<svg width="43" height="43" viewBox="0 0 43 43" fill="none" xmlns="http://www.w3.org/2000/svg">
<path fill-rule="evenodd" clip-rule="evenodd" d="M13.9892 32.265C13.887 32.0329 13.7232 31.831 13.5142 31.6798L13.4982 31.6682C11.939 30.5028 10.6779 29.007 9.81235 27.2962C8.9468 25.5855 8.49991 23.7055 8.50616 21.8015C8.50582 19.6635 9.0676 17.5605 10.1389 15.6896C11.2101 13.8186 12.7557 12.2409 14.6309 11.1045C16.506 9.96802 18.6493 9.30997 20.8598 9.19201C23.0702 9.07406 25.2755 9.50005 27.2689 10.4301C29.2623 11.3601 30.9785 12.7637 32.2567 14.5093C33.5349 16.2549 34.3332 18.2853 34.5768 20.4102C34.8204 22.5352 34.5013 24.6851 33.6494 26.6584C32.7975 28.6317 31.4407 30.3638 29.7062 31.6923L29.6732 31.7145C29.4768 31.8578 29.3213 32.0469 29.2212 32.264L13.9892 32.265ZM16.0432 23.9048L19.0312 26.7904C19.1797 26.9341 19.3579 27.0459 19.5542 27.1185C19.7506 27.1911 19.9605 27.2229 20.1704 27.2118C20.3804 27.2007 20.5855 27.1469 20.7724 27.054C20.9593 26.961 21.1238 26.8311 21.2552 26.6725L27.2332 19.4567C27.4721 19.157 27.5798 18.7788 27.533 18.4033C27.4862 18.0277 27.2887 17.6849 26.9829 17.4486C26.6771 17.2123 26.2875 17.1012 25.8978 17.1394C25.5082 17.1776 25.1496 17.3619 24.8992 17.6528L19.9652 23.6103L18.1562 21.8633C17.8758 21.5927 17.4957 21.4407 17.0993 21.4408C16.7029 21.4409 16.3229 21.593 16.0427 21.8638C15.7625 22.1345 15.6051 22.5016 15.6052 22.8844C15.6053 23.2672 15.7628 23.6342 16.0432 23.9048ZM29.0622 35.1506C29.0542 36.1105 29.0542 37.1284 29.0542 38.0381C29.0543 38.6067 28.9384 39.1697 28.7131 39.695C28.4878 40.2204 28.1574 40.6976 27.741 41.0996C27.3246 41.5016 26.8302 41.8204 26.2861 42.0377C25.7421 42.2551 25.1589 42.3668 24.5702 42.3664H18.5942C17.4059 42.3669 16.2661 41.9116 15.4254 41.1006C14.5847 40.2897 14.112 39.1894 14.1112 38.0419V35.1544L29.0622 35.1506ZM20.0882 1.95987C20.0882 1.57722 20.2456 1.21024 20.5258 0.93967C20.8059 0.669097 21.1859 0.51709 21.5822 0.51709C21.9784 0.51709 22.3584 0.669097 22.6386 0.93967C22.9188 1.21024 23.0762 1.57722 23.0762 1.95987V4.84543C23.0762 5.22808 22.9188 5.59506 22.6386 5.86563C22.3584 6.1362 21.9784 6.28821 21.5822 6.28821C21.1859 6.28821 20.8059 6.1362 20.5258 5.86563C20.2456 5.59506 20.0882 5.22808 20.0882 4.84543V1.95987ZM38.0192 23.6064C37.6227 23.6064 37.2424 23.4543 36.962 23.1835C36.6817 22.9128 36.5242 22.5456 36.5242 22.1627C36.5242 21.7797 36.6817 21.4125 36.962 21.1418C37.2424 20.871 37.6227 20.7189 38.0192 20.7189H41.0092C41.4057 20.7189 41.7859 20.871 42.0663 21.1418C42.3466 21.4125 42.5042 21.7797 42.5042 22.1627C42.5042 22.5456 42.3466 22.9128 42.0663 23.1835C41.7859 23.4543 41.4057 23.6064 41.0092 23.6064H38.0192ZM2.15417 23.6064C1.75768 23.6064 1.37741 23.4543 1.09705 23.1835C0.816679 22.9128 0.65918 22.5456 0.65918 22.1627C0.65918 21.7797 0.816679 21.4125 1.09705 21.1418C1.37741 20.871 1.75768 20.7189 2.15417 20.7189H5.14417C5.54066 20.7189 5.92093 20.871 6.20129 21.1418C6.48166 21.4125 6.63916 21.7797 6.63916 22.1627C6.63916 22.5456 6.48166 22.9128 6.20129 23.1835C5.92093 23.4543 5.54066 23.6064 5.14417 23.6064H2.15417ZM36.5262 5.69043C36.6642 5.55298 36.8291 5.44342 37.0114 5.36812C37.1937 5.29282 37.3897 5.25328 37.5879 5.25181C37.7862 5.25034 37.9827 5.28697 38.1662 5.35956C38.3497 5.43215 38.5163 5.53925 38.6565 5.67463C38.7967 5.81002 38.9076 5.97098 38.9828 6.14814C39.058 6.32531 39.0959 6.51515 39.0944 6.7066C39.0928 6.89806 39.0519 7.08731 38.9739 7.26334C38.8959 7.43937 38.7825 7.59867 38.6402 7.73195L36.5262 9.77155C36.2461 10.0423 35.8661 10.1945 35.4699 10.1946C35.0736 10.1948 34.6935 10.043 34.4132 9.77251C34.1328 9.50205 33.9752 9.13511 33.975 8.75243C33.9748 8.36975 34.1321 8.00268 34.4122 7.73195L36.5262 5.69043ZM4.52615 7.73195C4.25802 7.45898 4.11084 7.0957 4.11594 6.71949C4.12103 6.34327 4.27801 5.98383 4.55344 5.71772C4.82887 5.45161 5.20097 5.29985 5.59055 5.29475C5.98012 5.28965 6.35637 5.43162 6.63916 5.69043L8.75317 7.73195C8.89185 7.866 9.00181 8.02512 9.07681 8.20021C9.15181 8.3753 9.19037 8.56295 9.19028 8.75243C9.19018 8.94192 9.15144 9.12953 9.07626 9.30455C9.00109 9.47958 8.89097 9.63859 8.75217 9.77251C8.61336 9.90643 8.44858 10.0126 8.26727 10.0851C8.08596 10.1575 7.89168 10.1947 7.69547 10.1946C7.49925 10.1946 7.30499 10.1571 7.12375 10.0845C6.94251 10.012 6.77784 9.9056 6.63916 9.77155L4.52615 7.73195Z" fill="#7C3AED"/>
</svg>
