<svg width="55" height="43" viewBox="0 0 55 43" fill="none" xmlns="http://www.w3.org/2000/svg">
<path d="M40.542 29.3997C40.1308 26.6984 38.7305 24.229 36.5953 22.4394C34.46 20.6499 31.7312 19.6588 28.904 19.646H26.269C23.4417 19.6588 20.7129 20.6499 18.5777 22.4394C16.4424 24.229 15.0421 26.6984 14.631 29.3997L13.368 37.927C13.3279 38.2029 13.355 38.4839 13.447 38.748C13.539 39.012 13.6934 39.2516 13.898 39.448C14.398 39.9309 17.432 42.3654 27.591 42.3654C37.75 42.3654 40.782 39.9357 41.284 39.448C41.488 39.2514 41.6419 39.0116 41.7333 38.7476C41.8248 38.4836 41.8514 38.2026 41.811 37.927L40.542 29.3997Z" fill="#7C3AED"/>
<path d="M16.5889 20.9628C14.1957 23.0932 12.6384 25.957 12.181 29.0691L11.2649 35.1907C3.91295 35.1473 1.68195 32.5611 1.31295 32.0348C1.16932 31.8436 1.06682 31.6266 1.01152 31.3965C0.956213 31.1665 0.949218 30.928 0.99095 30.6953L1.53595 27.7306C1.81973 26.1809 2.48627 24.7201 3.47907 23.4722C4.47186 22.2242 5.76163 21.2258 7.23901 20.5617C8.71639 19.8976 10.3378 19.5873 11.9658 19.6571C13.5938 19.7269 15.1804 20.1748 16.591 20.9628H16.5889Z" fill="#7C3AED"/>
<path d="M54.178 30.6955C54.2197 30.9282 54.2127 31.1667 54.1574 31.3967C54.1021 31.6268 53.9996 31.8438 53.856 32.035C53.485 32.5613 51.256 35.1436 43.902 35.1919L42.986 29.0702C42.5285 25.9581 40.9713 23.0944 38.578 20.964C39.9887 20.175 41.5756 19.7262 43.2042 19.6558C44.8328 19.5854 46.4549 19.8954 47.933 20.5595C49.411 21.2236 50.7014 22.2223 51.6946 23.4707C52.6877 24.7191 53.3544 26.1805 53.638 27.7308L54.178 30.6955Z" fill="#7C3AED"/>
<path d="M17.01 15.702C16.3867 16.5558 15.5593 17.2517 14.5979 17.7305C13.6365 18.2093 12.5697 18.457 11.488 18.4524C10.4088 18.4527 9.3449 18.2054 8.38411 17.7307C7.42331 17.256 6.59309 16.5676 5.96188 15.7222C5.33067 14.8769 4.91656 13.8987 4.75367 12.8684C4.59078 11.8381 4.68379 10.7852 5.02502 9.79647C5.36625 8.80771 5.94594 7.91143 6.71629 7.18151C7.48665 6.45159 8.42561 5.90893 9.45577 5.59827C10.4859 5.28761 11.5778 5.21784 12.6414 5.39472C13.705 5.57159 14.7098 5.99005 15.573 6.61559C15.3249 7.5531 15.2002 8.51709 15.202 9.48473C15.204 11.6779 15.8294 13.8285 17.01 15.702Z" fill="#7C3AED"/>
<path d="M50.487 11.8766C50.4882 12.7405 50.3128 13.5962 49.971 14.3945C49.6292 15.1929 49.1276 15.9183 48.4949 16.5291C47.8623 17.1399 47.1111 17.6242 46.2844 17.9542C45.4576 18.2842 44.5716 18.4534 43.677 18.4521C42.5953 18.4567 41.5284 18.2091 40.5671 17.7303C39.6057 17.2514 38.7782 16.5556 38.155 15.7018C39.3355 13.8282 39.9609 11.6777 39.963 9.48451C39.9647 8.51687 39.8401 7.55288 39.592 6.61537C40.6037 5.88284 41.8067 5.43683 43.0661 5.32729C44.3256 5.21776 45.5917 5.44903 46.7227 5.99519C47.8537 6.54136 48.8049 7.38085 49.4698 8.41962C50.1346 9.45839 50.4868 10.6554 50.487 11.8766Z" fill="#7C3AED"/>
<path d="M27.584 18.4533C32.7125 18.4533 36.87 14.4384 36.87 9.48571C36.87 4.53302 32.7125 0.518066 27.584 0.518066C22.4555 0.518066 18.298 4.53302 18.298 9.48571C18.298 14.4384 22.4555 18.4533 27.584 18.4533Z" fill="#7C3AED"/>
</svg>
